<?xml version="1.0" encoding="UTF-8"?>
<!DOCTYPE svg PUBLIC "-//W3C//DTD SVG 1.1//EN" "http://www.w3.org/Graphics/SVG/1.1/DTD/svg11.dtd">
<svg xmlns="http://www.w3.org/2000/svg" version="1.1" width="225px" height="225px" style="shape-rendering:geometricPrecision; text-rendering:geometricPrecision; image-rendering:optimizeQuality; fill-rule:evenodd; clip-rule:evenodd" xmlns:xlink="http://www.w3.org/1999/xlink">
<g><path style="opacity:1" fill="#fefefe" d="M -0.5,-0.5 C 74.5,-0.5 149.5,-0.5 224.5,-0.5C 224.5,74.5 224.5,149.5 224.5,224.5C 149.5,224.5 74.5,224.5 -0.5,224.5C -0.5,149.5 -0.5,74.5 -0.5,-0.5 Z"/></g>
<g><path style="opacity:1" fill="#010101" d="M 105.5,45.5 C 105.5,44.1667 105.5,42.8333 105.5,41.5C 117.167,41.5 128.833,41.5 140.5,41.5C 134.714,58.6625 132.881,76.3291 135,94.5C 135.53,107.738 137.53,120.738 141,133.5C 142.667,137.5 144.333,137.5 146,133.5C 152.475,112.795 157.808,91.7952 162,70.5C 162.667,67.5 162.667,64.5 162,61.5C 156.756,54.9123 156.256,48.079 160.5,41C 167.763,37.2454 174.597,37.7454 181,42.5C 181.711,49.2152 181.378,55.8818 180,62.5C 173.027,96.061 164.027,129.061 153,161.5C 151.023,166.434 148.857,171.268 146.5,176C 138.833,176.667 131.167,176.667 123.5,176C 120.375,171.637 118.208,166.804 117,161.5C 114.584,150.747 111.917,140.08 109,129.5C 101.789,144.964 94.2886,160.297 86.5,175.5C 79.8333,176.833 73.1667,176.833 66.5,175.5C 62.6033,169.317 59.77,162.651 58,155.5C 49.4675,122.041 45.4675,88.0411 46,53.5C 44.6756,49.5537 44.0089,45.5537 44,41.5C 55.1368,40.1752 66.3035,40.1752 77.5,41.5C 78.8508,45.0661 78.3508,48.3994 76,51.5C 74.4912,73.0237 75.8245,94.357 80,115.5C 80.8882,120.169 82.5549,124.503 85,128.5C 87.9122,122.77 90.2455,116.77 92,110.5C 96,96.5 100,82.5 104,68.5C 105.262,60.8872 105.762,53.2205 105.5,45.5 Z"/></g>
<g><path style="opacity:1" fill="#c6c6c6" d="M 140.5,41.5 C 128.833,41.5 117.167,41.5 105.5,41.5C 105.5,42.8333 105.5,44.1667 105.5,45.5C 104.549,44.0813 104.216,42.4147 104.5,40.5C 116.678,40.1716 128.678,40.5049 140.5,41.5 Z"/></g>
</svg>
